<svg width="173" height="62" viewBox="0 0 173 62" fill="none" xmlns="http://www.w3.org/2000/svg">
<g filter="url(#filter0_dd_2151_7926)">
<rect x="5" y="3" width="163" height="53" rx="26.5" fill="white"/>
<path d="M21.696 30.42L28.176 21.924H32.688V31.092H35.184V34.26H32.688V37.5H28.896V34.26H21.696V30.42ZM28.896 25.956L24.984 31.092H28.896V25.956ZM36.8674 35.244C36.8674 34.908 36.9314 34.596 37.0594 34.308C37.1874 34.004 37.3634 33.74 37.5874 33.516C37.8114 33.292 38.0674 33.116 38.3554 32.988C38.6594 32.86 38.9794 32.796 39.3154 32.796C39.6514 32.796 39.9634 32.86 40.2514 32.988C40.5554 33.116 40.8194 33.292 41.0434 33.516C41.2834 33.74 41.4674 34.004 41.5954 34.308C41.7234 34.596 41.7874 34.908 41.7874 35.244C41.7874 35.58 41.7234 35.9 41.5954 36.204C41.4674 36.492 41.2834 36.748 41.0434 36.972C40.8194 37.196 40.5554 37.372 40.2514 37.5C39.9634 37.644 39.6514 37.716 39.3154 37.716C38.9794 37.716 38.6594 37.644 38.3554 37.5C38.0674 37.372 37.8114 37.196 37.5874 36.972C37.3634 36.748 37.1874 36.492 37.0594 36.204C36.9314 35.9 36.8674 35.58 36.8674 35.244ZM49.8049 28.188C50.4929 28.172 50.9969 27.98 51.3169 27.612C51.6369 27.244 51.7969 26.828 51.7969 26.364C51.7969 25.948 51.6289 25.564 51.2929 25.212C50.9569 24.86 50.4609 24.684 49.8049 24.684C49.1489 24.684 48.6529 24.86 48.3169 25.212C47.9809 25.564 47.8129 25.948 47.8129 26.364C47.8129 26.828 47.9729 27.244 48.2929 27.612C48.6289 27.98 49.1329 28.172 49.8049 28.188ZM49.8049 34.788C50.1889 34.788 50.5249 34.732 50.8129 34.62C51.1009 34.508 51.3409 34.364 51.5329 34.188C51.7409 33.996 51.8929 33.788 51.9889 33.564C52.0849 33.324 52.1329 33.084 52.1329 32.844C52.1329 32.604 52.0849 32.364 51.9889 32.124C51.9089 31.884 51.7729 31.676 51.5809 31.5C51.3889 31.308 51.1409 31.156 50.8369 31.044C50.5489 30.916 50.2049 30.852 49.8049 30.852C49.4049 30.852 49.0609 30.916 48.7729 31.044C48.4849 31.156 48.2449 31.308 48.0529 31.5C47.8609 31.676 47.7169 31.884 47.6209 32.124C47.5409 32.364 47.5009 32.604 47.5009 32.844C47.5009 33.084 47.5489 33.324 47.6449 33.564C47.7409 33.788 47.8849 33.996 48.0769 34.188C48.2689 34.364 48.5089 34.508 48.7969 34.62C49.0849 34.732 49.4209 34.788 49.8049 34.788ZM49.8049 37.86C48.9249 37.86 48.1169 37.748 47.3809 37.524C46.6449 37.3 46.0129 36.988 45.4849 36.588C44.9569 36.188 44.5409 35.708 44.2369 35.148C43.9489 34.588 43.8049 33.964 43.8049 33.276C43.8049 32.476 44.0369 31.724 44.5009 31.02C44.9809 30.316 45.6289 29.804 46.4449 29.484C46.0449 29.34 45.6929 29.14 45.3889 28.884C45.1009 28.628 44.8609 28.348 44.6689 28.044C44.4769 27.724 44.3329 27.396 44.2369 27.06C44.1409 26.708 44.0929 26.38 44.0929 26.076C44.0929 25.42 44.2289 24.82 44.5009 24.276C44.7889 23.716 45.1809 23.236 45.6769 22.836C46.1889 22.436 46.7889 22.124 47.4769 21.9C48.1809 21.676 48.9569 21.564 49.8049 21.564C50.6529 21.564 51.4289 21.676 52.1329 21.9C52.8369 22.124 53.4369 22.436 53.9329 22.836C54.4449 23.236 54.8369 23.716 55.1089 24.276C55.3969 24.82 55.5409 25.42 55.5409 26.076C55.5409 26.38 55.4929 26.708 55.3969 27.06C55.3009 27.396 55.1489 27.724 54.9409 28.044C54.7489 28.348 54.5009 28.628 54.1969 28.884C53.9089 29.14 53.5649 29.34 53.1649 29.484C53.9809 29.804 54.6289 30.316 55.1089 31.02C55.5889 31.724 55.8289 32.476 55.8289 33.276C55.8289 33.964 55.6769 34.588 55.3729 35.148C55.0849 35.708 54.6769 36.188 54.1489 36.588C53.6209 36.988 52.9809 37.3 52.2289 37.524C51.4929 37.748 50.6849 37.86 49.8049 37.86Z" fill="#0D101A"/>
<path d="M67.9598 14.2015C68.2872 13.1938 69.7128 13.1938 70.0402 14.2015L70.5505 15.7721C70.697 16.2227 71.1169 16.5279 71.5908 16.5279H73.2422C74.3018 16.5279 74.7423 17.8837 73.8851 18.5065L72.5491 19.4772C72.1657 19.7557 72.0053 20.2494 72.1517 20.7L72.6621 22.2707C72.9895 23.2783 71.8361 24.1163 70.979 23.4935L69.6429 22.5228C69.2595 22.2443 68.7405 22.2443 68.3571 22.5228L67.021 23.4935C66.1639 24.1163 65.0105 23.2783 65.3379 22.2707L65.8483 20.7C65.9947 20.2494 65.8343 19.7557 65.4509 19.4772L64.1149 18.5065C63.2577 17.8837 63.6982 16.5279 64.7578 16.5279H66.4092C66.8831 16.5279 67.303 16.2227 67.4495 15.7721L67.9598 14.2015Z" fill="#FEDF89"/>
<path d="M86.6942 14.2015C87.0216 13.1938 88.4472 13.1938 88.7746 14.2015L89.2849 15.7721C89.4313 16.2227 89.8513 16.5279 90.3251 16.5279H91.9766C93.0362 16.5279 93.4767 17.8837 92.6195 18.5065L91.2834 19.4772C90.9001 19.7557 90.7397 20.2494 90.8861 20.7L91.3964 22.2707C91.7239 23.2783 90.5705 24.1163 89.7133 23.4935L88.3773 22.5228C87.9939 22.2443 87.4748 22.2443 87.0915 22.5228L85.7554 23.4935C84.8982 24.1163 83.7449 23.2783 84.0723 22.2707L84.5826 20.7C84.7291 20.2494 84.5687 19.7557 84.1853 19.4772L82.8493 18.5065C81.9921 17.8837 82.4326 16.5279 83.4921 16.5279H85.1436C85.6174 16.5279 86.0374 16.2227 86.1838 15.7721L86.6942 14.2015Z" fill="#FEDF89"/>
<path d="M105.429 14.2015C105.756 13.1938 107.182 13.1938 107.509 14.2015L108.019 15.7721C108.166 16.2227 108.586 16.5279 109.06 16.5279H110.711C111.771 16.5279 112.211 17.8837 111.354 18.5065L110.018 19.4772C109.634 19.7557 109.474 20.2494 109.62 20.7L110.131 22.2707C110.458 23.2783 109.305 24.1163 108.448 23.4935L107.112 22.5228C106.728 22.2443 106.209 22.2443 105.826 22.5228L104.49 23.4935C103.633 24.1163 102.479 23.2783 102.807 22.2707L103.317 20.7C103.463 20.2494 103.303 19.7557 102.92 19.4772L101.584 18.5065C100.726 17.8837 101.167 16.5279 102.227 16.5279H103.878C104.352 16.5279 104.772 16.2227 104.918 15.7721L105.429 14.2015Z" fill="#FEDF89"/>
<path d="M124.163 14.2015C124.49 13.1938 125.916 13.1938 126.243 14.2015L126.754 15.7721C126.9 16.2227 127.32 16.5279 127.794 16.5279H129.445C130.505 16.5279 130.945 17.8837 130.088 18.5065L128.752 19.4772C128.369 19.7557 128.208 20.2494 128.355 20.7L128.865 22.2707C129.193 23.2783 128.039 24.1163 127.182 23.4935L125.846 22.5228C125.463 22.2443 124.944 22.2443 124.56 22.5228L123.224 23.4935C122.367 24.1163 121.214 23.2783 121.541 22.2707L122.051 20.7C122.198 20.2494 122.037 19.7557 121.654 19.4772L120.318 18.5065C119.461 17.8837 119.901 16.5279 120.961 16.5279H122.612C123.086 16.5279 123.506 16.2227 123.653 15.7721L124.163 14.2015Z" fill="#FEDF89"/>
<path d="M143.131 14.2775C143.385 13.4966 144.49 13.4966 144.744 14.2775L145.254 15.8481C145.433 16.4002 145.948 16.774 146.528 16.774H148.18C149.001 16.774 149.342 17.8247 148.678 18.3074L147.342 19.2781C146.872 19.6193 146.676 20.224 146.855 20.7761L147.366 22.3467C147.619 23.1277 146.725 23.7771 146.061 23.2944L144.725 22.3237C144.255 21.9825 143.62 21.9825 143.15 22.3237L141.814 23.2944C141.15 23.7771 140.256 23.1277 140.509 22.3467L141.02 20.7761C141.199 20.224 141.003 19.6193 140.533 19.2781L139.197 18.3074C138.533 17.8247 138.874 16.774 139.695 16.774H141.347C141.927 16.774 142.442 16.4002 142.621 15.8481L143.131 14.2775Z" fill="url(#paint0_linear_2151_7926)" stroke="#FEDF89" stroke-width="0.492187"/>
<path d="M104.887 46.2174H106.165L107.01 44.2867H110.368L111.224 46.2174H112.513L109.238 38.8477H108.161L104.887 46.2174ZM107.485 43.2072L108.689 40.4773L109.893 43.2072H107.485Z" fill="#395BB6"/>
<path d="M113.477 46.2174H115.779C118.008 46.2174 119.708 44.6188 119.708 42.5325C119.708 40.4461 118.008 38.8477 115.779 38.8477H113.477V46.2174ZM114.712 45.0859V39.9791H115.779C117.385 39.9791 118.451 41.0897 118.451 42.5325C118.451 43.9753 117.385 45.0859 115.779 45.0859H114.712Z" fill="#395BB6"/>
<path d="M123.093 46.2174H124.17L127.318 38.8477H125.955L123.632 44.3593L121.297 38.8477H119.945L123.093 46.2174Z" fill="#395BB6"/>
<path d="M128.301 46.2174H129.537V38.8477H128.301V46.2174Z" fill="#395BB6"/>
<path d="M130.793 45.0128C131.247 45.8017 132.251 46.3414 133.465 46.3414C134.933 46.3414 135.968 45.5007 135.968 44.2136C135.979 43.1133 135.314 42.4594 134.205 42.0546L133.444 41.7743C132.673 41.4941 132.303 41.2553 132.303 40.7156C132.303 40.1862 132.853 39.8644 133.486 39.8644C134.067 39.8644 134.532 40.1136 134.912 40.5495L135.768 39.7295C135.219 39.086 134.426 38.7227 133.497 38.7227C132.103 38.7227 131.057 39.5115 131.057 40.7986C131.057 41.8055 131.638 42.449 132.831 42.8746L133.655 43.1652C134.374 43.4247 134.722 43.7673 134.722 44.2862C134.722 44.8364 134.205 45.1997 133.507 45.1997C132.779 45.1997 132.156 44.8468 131.765 44.2551L130.793 45.0128Z" fill="#395BB6"/>
<path d="M144.581 42.532C144.581 40.4042 142.849 38.7227 140.704 38.7227C138.55 38.7227 136.828 40.4042 136.828 42.532C136.828 44.6599 138.55 46.3414 140.704 46.3414C142.849 46.3414 144.581 44.6599 144.581 42.532ZM138.074 42.532C138.074 41.0685 139.215 39.8956 140.704 39.8956C142.183 39.8956 143.324 41.0685 143.324 42.532C143.324 43.9956 142.183 45.1685 140.704 45.1685C139.215 45.1685 138.074 43.9956 138.074 42.532Z" fill="#395BB6"/>
<path d="M145.938 46.2174H147.173V42.9788H147.733L150.479 46.2174H152L149.212 42.9062C150.289 42.657 150.912 41.9824 150.912 40.9444C150.912 39.7299 150.036 38.8477 148.641 38.8477H145.938V46.2174ZM147.173 41.9201V39.9687H148.494C149.222 39.9687 149.677 40.3112 149.677 40.9444C149.677 41.5775 149.222 41.9201 148.494 41.9201H147.173Z" fill="#395BB6"/>
<mask id="mask0_2151_7926" style="mask-type:luminance" maskUnits="userSpaceOnUse" x="61" y="35" width="41" height="13">
<path d="M101.826 35H61V48H101.826V35Z" fill="white"/>
</mask>
<g mask="url(#mask0_2151_7926)">
<path d="M80.7685 38.8291C80.4258 38.8291 80.2443 38.8655 79.9677 38.9909C79.4641 39.2174 79.0884 39.5855 78.75 40.1842L78.6427 40.3702L78.6551 40.0385C78.6634 39.8565 78.6757 39.5167 78.684 39.2821L78.6963 38.8574H78.6262C78.5354 38.8574 75.6254 39.4278 75.5387 39.4642C75.4809 39.4884 75.4727 39.5127 75.4727 39.6502C75.4727 39.7918 75.4809 39.808 75.5387 39.8201C75.5758 39.8282 75.7079 39.8525 75.8359 39.8767C76.0919 39.9253 76.1702 39.9657 76.2776 40.1033C76.4715 40.3581 76.5129 40.803 76.5129 42.7001C76.5129 44.2493 76.4798 45.0219 76.4014 45.2646C76.3106 45.5599 76.1454 45.7136 75.8607 45.7621C75.7699 45.7783 75.6461 45.8026 75.5924 45.8147L75.4892 45.835L75.4809 46.0332C75.4768 46.1707 75.4851 46.2395 75.5098 46.2556C75.5304 46.2677 76.5252 46.2759 77.7181 46.2719L79.8892 46.2637L79.8975 46.0412C79.9017 45.9199 79.8975 45.8188 79.881 45.8188C79.7117 45.8188 79.1958 45.75 79.1132 45.7176C78.8697 45.6165 78.75 45.4021 78.7005 44.9653C78.6386 44.4516 78.6056 43.1734 78.622 42.1298C78.6386 41.074 78.6386 41.07 78.7046 40.9972C78.8615 40.8314 79.2618 40.7019 79.6168 40.7019C79.9017 40.7019 80.1989 40.7747 80.5125 40.9203C80.6653 40.9931 80.8014 41.0417 80.8221 41.0376C80.8634 41.0215 81.5733 39.177 81.5733 39.092C81.5775 38.9585 81.1729 38.8291 80.7685 38.8291Z" fill="#181716"/>
<path d="M75.4764 42.0371C75.3237 40.7589 74.7705 39.8245 73.8583 39.2987C72.8471 38.7162 71.3075 38.6798 70.2136 39.2178C69.4253 39.6061 68.7772 40.3544 68.4924 41.2119C68.1952 42.0978 68.1952 43.2627 68.4924 44.1688C68.6823 44.7472 68.9382 45.172 69.3345 45.5562C69.8091 46.0174 70.4324 46.3127 71.1424 46.4138C71.3983 46.4502 72.199 46.4502 72.4633 46.4138C72.5871 46.3976 72.8017 46.3491 72.942 46.3127C74.234 45.9446 75.1131 44.9738 75.4144 43.5823C75.4929 43.2506 75.5218 42.4254 75.4764 42.0371ZM72.2114 45.8636C71.4107 46.0983 70.8369 45.3499 70.614 43.7805C70.5439 43.2749 70.5439 41.8915 70.614 41.3131C70.7709 40.051 71.1671 39.4119 71.7945 39.4079C72.0752 39.4079 72.2321 39.4767 72.455 39.691C72.9792 40.2088 73.2309 41.1998 73.2269 42.7571C73.2227 43.9989 73.0989 44.7796 72.814 45.3095C72.6737 45.5643 72.4178 45.803 72.2114 45.8636Z" fill="#181716"/>
<path d="M64.88 36.9606H65.8046C66.8654 36.9606 67.0387 36.9808 67.4143 37.1628C67.9592 37.4257 68.3554 37.9435 68.7063 38.8455C68.8466 39.2136 68.8466 39.2095 69.1603 39.1165L69.3708 39.0558L69.3502 37.7291C69.3378 37.001 69.3213 36.3498 69.313 36.285L69.2924 36.1718L65.2432 36.1637C63.0143 36.1596 61.1486 36.1637 61.0991 36.1718L61 36.188L61.0083 36.4226L61.0165 36.6572L61.3261 36.6936C61.7265 36.7421 61.9659 36.8513 62.1062 37.0536C62.424 37.5107 62.4818 38.1336 62.4818 41.0864C62.4818 44.2334 62.4158 44.9979 62.1062 45.3943C61.9452 45.6006 61.8173 45.6653 61.4582 45.73C60.9876 45.815 61.0041 45.8028 61.0041 46.0415C61.0041 46.175 61.0165 46.2437 61.0413 46.2558C61.0949 46.2761 66.2751 46.2801 66.3288 46.2558C66.3989 46.2275 66.3948 45.8554 66.3246 45.819C66.2957 45.8028 66.1224 45.7705 65.9366 45.7421C65.7509 45.7138 65.5445 45.6693 65.4826 45.641C65.1441 45.4954 64.9543 45.0949 64.8841 44.3709C64.8346 43.8532 64.7933 42.8945 64.7933 42.1866V41.5394L65.107 41.5475C65.7798 41.5678 66.1265 41.6042 66.2669 41.6648C66.5723 41.7983 66.8158 42.1624 66.9438 42.6761L67.0098 42.9511L67.2492 42.9592L67.4886 42.9673V39.517L67.2492 39.5251L67.0098 39.5331L66.9397 39.8042C66.8035 40.334 66.5847 40.6576 66.2586 40.8073C66.1265 40.868 66.0316 40.8842 65.7138 40.9044C65.5032 40.9165 65.2102 40.9287 65.0575 40.9287H64.785V40.0711C64.785 39.2136 64.8304 37.3934 64.8635 37.1102L64.88 36.9606Z" fill="#181716"/>
<path d="M101.633 43.0567C101.385 42.5713 100.931 42.2436 99.9819 41.8513C99.2058 41.5317 98.8137 41.3133 98.5744 41.0585C98.3803 40.8522 98.3226 40.6823 98.3432 40.3749C98.3597 40.0877 98.434 39.9178 98.6156 39.7277C98.8508 39.4809 99.1728 39.396 99.5609 39.4769C100.197 39.6063 100.601 40.0391 100.952 40.9493C101.076 41.2729 101.092 41.285 101.315 41.2041L101.455 41.1515L101.451 40.7794C101.447 40.5731 101.439 40.1403 101.427 39.8207L101.41 39.2261L101.303 39.1816C100.721 38.9389 99.6145 38.7892 98.8963 38.854C98.079 38.9268 97.4764 39.1816 97.0141 39.6508C96.5559 40.116 96.3454 40.6661 96.3825 41.3173C96.4114 41.8553 96.5765 42.2436 96.915 42.5794C97.2287 42.8949 97.4928 43.0445 98.2483 43.3317C99.4659 43.7969 99.7919 44.076 99.7879 44.6504C99.7879 45.1358 99.5237 45.4917 99.0449 45.6576C98.8756 45.7182 98.4422 45.7182 98.2111 45.6576C97.6043 45.4998 97.1421 44.9861 96.7457 44.0315L96.6426 43.7888L96.5229 43.7929C96.4568 43.7969 96.366 43.8171 96.3248 43.8374L96.2422 43.8738L96.2505 44.2904C96.2545 44.5209 96.267 45.0023 96.2753 45.3663L96.2917 46.0216L96.4279 46.0783C96.7045 46.1955 97.5382 46.3735 98.0583 46.4302C98.1244 46.4383 98.4793 46.4383 98.8508 46.4342C99.4947 46.4262 99.5402 46.422 99.8662 46.3412C100.824 46.0944 101.443 45.5726 101.715 44.7798C101.798 44.5371 101.81 44.4603 101.823 44.1003C101.839 43.623 101.794 43.3722 101.633 43.0567Z" fill="#181716"/>
<path d="M94.2377 39.12C93.4329 38.7236 92.1863 38.7519 91.2741 39.1887C90.4114 39.6013 89.817 40.289 89.4868 41.2598C89.3134 41.7654 89.2598 42.1739 89.2763 42.8292C89.2887 43.2418 89.3051 43.4562 89.3506 43.6503C89.6891 45.1389 90.7334 46.1501 92.1863 46.409C92.5082 46.4656 93.2347 46.4656 93.5607 46.413C94.0231 46.3321 94.5555 46.1339 94.8939 45.9074C95.3026 45.6364 95.7278 45.2279 95.7278 45.0984C95.7278 45.0216 95.5874 44.8436 95.5255 44.8436C95.5008 44.8436 95.3852 44.9002 95.2737 44.973C94.8733 45.2279 94.4895 45.333 93.9528 45.333C93.2182 45.333 92.7476 45.151 92.2812 44.6899C92.0748 44.4836 91.9881 44.3744 91.8808 44.1681C91.6456 43.7191 91.5176 43.2054 91.497 42.6229L91.4887 42.3721L93.6598 42.364L95.831 42.3559L95.8392 42.2103C95.8433 42.1294 95.8351 41.9231 95.8144 41.7492C95.6783 40.4548 95.1458 39.5649 94.2377 39.12ZM92.05 41.7411L91.5011 41.7492V41.6319C91.5011 41.5672 91.5217 41.3973 91.5424 41.2557C91.724 40.0989 92.1657 39.4031 92.7187 39.4031C93.2264 39.4031 93.5401 40.0867 93.6062 41.3406L93.6227 41.6966L93.1109 41.7128C92.8302 41.7249 92.3514 41.7371 92.05 41.7411Z" fill="#181716"/>
<path d="M86.3679 38.9828C86.1946 38.9464 86.0377 38.9423 85.7034 38.9504C85.1956 38.9666 84.849 39.0435 84.4692 39.2134C84.3454 39.27 84.2339 39.3185 84.2257 39.3185C84.2174 39.3185 84.2174 38.5662 84.2299 37.652C84.2422 36.3576 84.2381 35.9814 84.2092 35.9814C84.1142 35.9814 81.1176 36.5396 81.0846 36.5639C81.0598 36.5841 81.0516 36.6448 81.0557 36.7379C81.064 36.8996 81.0474 36.8875 81.4107 36.9684C81.5221 36.9927 81.6501 37.0412 81.6955 37.0736C81.8193 37.1585 81.9184 37.3446 81.9885 37.6075C82.0422 37.8138 82.0505 37.9635 82.0752 39.3752C82.1 40.8152 82.0959 42.2916 82.0545 45.0017L82.038 46.1262L82.2528 46.1747C82.5623 46.2435 83.4538 46.3891 83.7427 46.4175C84.1679 46.4619 85.1668 46.4539 85.4805 46.4093C86.8591 46.2071 87.8951 45.4224 88.3781 44.2251C88.5061 43.9055 88.6299 43.4161 88.6712 43.0561C88.7207 42.6313 88.6918 41.7779 88.6175 41.434C88.3327 40.1194 87.4989 39.2134 86.3679 38.9828ZM84.2753 45.7702C84.2381 45.6732 84.1927 42.3037 84.2092 40.9567L84.2216 39.9051L84.4156 39.8484C84.5435 39.812 84.6963 39.7918 84.8738 39.7918C85.1215 39.7918 85.1544 39.7999 85.365 39.901C85.8685 40.1437 86.2152 40.7545 86.3762 41.6767C86.4339 42.0165 86.4422 42.9509 86.3886 43.3594C86.2565 44.3626 85.9221 45.1756 85.4764 45.568C85.2989 45.7257 85.1338 45.8066 84.9192 45.8471C84.7664 45.8754 84.7169 45.8754 84.4403 45.8552C84.3248 45.8471 84.3 45.835 84.2753 45.7702Z" fill="#181716"/>
</g>
<rect x="5.3418" y="3.3418" width="162.316" height="52.3164" rx="26.1582" stroke="#DADDE5" stroke-width="0.683593"/>
</g>
<defs>
<filter id="filter0_dd_2151_7926" x="0.89844" y="0.265627" width="171.203" height="61.2031" filterUnits="userSpaceOnUse" color-interpolation-filters="sRGB">
<feFlood flood-opacity="0" result="BackgroundImageFix"/>
<feColorMatrix in="SourceAlpha" type="matrix" values="0 0 0 0 0 0 0 0 0 0 0 0 0 0 0 0 0 0 127 0" result="hardAlpha"/>
<feOffset dy="1.36719"/>
<feGaussianBlur stdDeviation="1.36719"/>
<feColorMatrix type="matrix" values="0 0 0 0 0.0627451 0 0 0 0 0.0941176 0 0 0 0 0.156863 0 0 0 0.06 0"/>
<feBlend mode="normal" in2="BackgroundImageFix" result="effect1_dropShadow_2151_7926"/>
<feColorMatrix in="SourceAlpha" type="matrix" values="0 0 0 0 0 0 0 0 0 0 0 0 0 0 0 0 0 0 127 0" result="hardAlpha"/>
<feOffset dy="1.36719"/>
<feGaussianBlur stdDeviation="2.05078"/>
<feColorMatrix type="matrix" values="0 0 0 0 0.0627451 0 0 0 0 0.0941176 0 0 0 0 0.156863 0 0 0 0.1 0"/>
<feBlend mode="normal" in2="effect1_dropShadow_2151_7926" result="effect2_dropShadow_2151_7926"/>
<feBlend mode="normal" in="SourceGraphic" in2="effect2_dropShadow_2151_7926" result="shape"/>
</filter>
<linearGradient id="paint0_linear_2151_7926" x1="138.338" y1="11" x2="149.618" y2="11" gradientUnits="userSpaceOnUse">
<stop offset="0.583233" stop-color="#FEDF89"/>
<stop offset="0.583333" stop-color="#FDB022" stop-opacity="0"/>
</linearGradient>
</defs>
</svg>
