<svg width="299" height="68" viewBox="0 0 299 68" fill="none" xmlns="http://www.w3.org/2000/svg">
<g filter="url(#filter0_dd_1474_6071)">
<ellipse cx="34.0781" cy="33.0781" rx="30.0781" ry="30.0781" fill="white"/>
</g>
<path d="M46.5464 49.7686L34.9961 42.2804C35.679 41.5857 36.3619 40.9264 37.0448 40.2788L40.8007 42.7278L39.0699 38.3714C39.8352 37.6885 40.6123 37.041 41.4247 36.4287L46.5464 49.7686Z" fill="#003057"/>
<path d="M44.6516 27.622L43.851 27.9634C42.2804 28.6439 40.758 29.4307 39.2944 30.3182H36.0095L34.1728 25.4556L32.3242 30.3182H18.9137L14.8281 27.6337H30.2638L34.1728 17.4375L38.0699 27.6337L44.6516 27.622Z" fill="#003057"/>
<path d="M53.3905 27.4455C51.6951 28.1519 41.6166 31.0836 28.1942 47.0609C28.0412 47.2375 25.8394 49.71 23.1785 49.71H20.9297C22.9666 44.4471 25.1919 38.6425 25.6746 37.3827C25.9353 36.8229 25.9884 36.1887 25.8245 35.5934C25.6605 34.9981 25.2902 34.4805 24.7798 34.1331L24.6385 34.0389H27.4642C27.9836 34.0327 28.4868 34.2196 28.8762 34.5633C29.2656 34.907 29.5135 35.3831 29.5718 35.8992V36.0522C29.5851 36.4225 29.5209 36.7914 29.3834 37.1354C28.7476 38.8427 27.8999 41.0679 27.3465 42.5161C27.5113 42.316 27.7468 42.0452 27.9705 41.8215C32.6005 36.6576 38.2434 32.5016 44.5483 29.6119C47.1744 28.4125 49.9852 27.668 52.8607 27.4102C53.0379 27.4102 53.2149 27.422 53.3905 27.4455Z" fill="#EB7100"/>
<path d="M84.9063 24.25V15.898L81.3703 24.25H79.7063L76.2023 15.93V24.25H74.3303V12.906H76.8903L80.5703 21.562L84.2023 12.906H86.8103V24.25H84.9063ZM92.7661 22.826C93.0541 22.826 93.3261 22.7727 93.5821 22.666C93.8488 22.5593 94.0835 22.4047 94.2861 22.202C94.4888 21.9887 94.6488 21.7273 94.7661 21.418C94.8835 21.1087 94.9421 20.7513 94.9421 20.346C94.9421 19.9407 94.8835 19.5887 94.7661 19.29C94.6488 18.9807 94.4888 18.7247 94.2861 18.522C94.0835 18.3087 93.8488 18.154 93.5821 18.058C93.3261 17.9513 93.0541 17.898 92.7661 17.898C92.4781 17.898 92.2008 17.9513 91.9341 18.058C91.6781 18.154 91.4488 18.3087 91.2461 18.522C91.0541 18.7247 90.8941 18.9807 90.7661 19.29C90.6488 19.5887 90.5901 19.9407 90.5901 20.346C90.5901 20.7513 90.6488 21.1087 90.7661 21.418C90.8941 21.7273 91.0541 21.9887 91.2461 22.202C91.4488 22.4047 91.6781 22.5593 91.9341 22.666C92.2008 22.7727 92.4781 22.826 92.7661 22.826ZM92.7661 16.218C93.3528 16.218 93.8915 16.3247 94.3821 16.538C94.8728 16.7407 95.2995 17.0287 95.6621 17.402C96.0248 17.7647 96.3075 18.1967 96.5101 18.698C96.7128 19.1993 96.8141 19.7487 96.8141 20.346C96.8141 20.9433 96.7128 21.498 96.5101 22.01C96.3075 22.5113 96.0248 22.9487 95.6621 23.322C95.2995 23.6847 94.8728 23.9727 94.3821 24.186C93.8915 24.3887 93.3528 24.49 92.7661 24.49C92.1901 24.49 91.6515 24.3887 91.1501 24.186C90.6595 23.9727 90.2328 23.6847 89.8701 23.322C89.5181 22.9487 89.2408 22.5113 89.0381 22.01C88.8355 21.498 88.7341 20.9433 88.7341 20.346C88.7341 19.7487 88.8355 19.1993 89.0381 18.698C89.2408 18.1967 89.5181 17.7647 89.8701 17.402C90.2328 17.0287 90.6595 16.7407 91.1501 16.538C91.6515 16.3247 92.1901 16.218 92.7661 16.218ZM103.181 18.298C102.967 18.266 102.765 18.25 102.573 18.25C101.847 18.25 101.314 18.4473 100.973 18.842C100.642 19.2367 100.477 19.802 100.477 20.538V24.25H98.6208V16.458H100.429V17.706C100.61 17.2793 100.903 16.9487 101.309 16.714C101.714 16.4793 102.173 16.362 102.685 16.362C102.802 16.362 102.903 16.3673 102.989 16.378C103.074 16.3887 103.138 16.3993 103.181 16.41V18.298ZM109.775 19.498C109.764 19.274 109.716 19.0607 109.631 18.858C109.556 18.6447 109.439 18.458 109.279 18.298C109.119 18.138 108.921 18.01 108.687 17.914C108.452 17.818 108.175 17.77 107.855 17.77C107.567 17.77 107.305 17.8233 107.071 17.93C106.847 18.026 106.655 18.1593 106.495 18.33C106.335 18.49 106.207 18.6767 106.111 18.89C106.015 19.0927 105.961 19.2953 105.951 19.498H109.775ZM111.551 22.026C111.444 22.3673 111.289 22.6873 111.087 22.986C110.884 23.2847 110.633 23.546 110.335 23.77C110.036 23.994 109.695 24.17 109.311 24.298C108.927 24.426 108.5 24.49 108.031 24.49C107.497 24.49 106.991 24.3993 106.511 24.218C106.031 24.026 105.609 23.754 105.247 23.402C104.884 23.0393 104.591 22.602 104.367 22.09C104.153 21.5673 104.047 20.9753 104.047 20.314C104.047 19.6953 104.148 19.1353 104.351 18.634C104.564 18.1327 104.847 17.706 105.199 17.354C105.551 16.9913 105.956 16.714 106.415 16.522C106.873 16.3193 107.348 16.218 107.839 16.218C108.436 16.218 108.969 16.314 109.439 16.506C109.919 16.698 110.319 16.97 110.639 17.322C110.969 17.674 111.22 18.1007 111.391 18.602C111.561 19.0927 111.647 19.6473 111.647 20.266C111.647 20.4153 111.641 20.5487 111.631 20.666C111.62 20.7727 111.609 20.8367 111.599 20.858H105.903C105.913 21.1567 105.977 21.4287 106.095 21.674C106.212 21.9193 106.367 22.1327 106.559 22.314C106.751 22.4953 106.969 22.6393 107.215 22.746C107.471 22.842 107.743 22.89 108.031 22.89C108.596 22.89 109.028 22.762 109.327 22.506C109.636 22.2393 109.855 21.914 109.983 21.53L111.551 22.026ZM119.475 16.458H121.091V18.106H119.475V21.722C119.475 22.0633 119.555 22.314 119.715 22.474C119.875 22.6233 120.126 22.698 120.467 22.698C120.595 22.698 120.723 22.6927 120.851 22.682C120.979 22.6607 121.064 22.6447 121.107 22.634V24.17C121.054 24.1913 120.936 24.2233 120.755 24.266C120.574 24.3193 120.312 24.346 119.971 24.346C119.246 24.346 118.675 24.1433 118.259 23.738C117.843 23.3327 117.635 22.762 117.635 22.026V18.106H116.195V16.458H116.595C117.011 16.458 117.315 16.3407 117.507 16.106C117.699 15.8713 117.795 15.5833 117.795 15.242V14.074H119.475V16.458ZM127.431 18.298C127.217 18.266 127.015 18.25 126.823 18.25C126.097 18.25 125.564 18.4473 125.223 18.842C124.892 19.2367 124.727 19.802 124.727 20.538V24.25H122.871V16.458H124.679V17.706C124.86 17.2793 125.153 16.9487 125.559 16.714C125.964 16.4793 126.423 16.362 126.935 16.362C127.052 16.362 127.153 16.3673 127.239 16.378C127.324 16.3887 127.388 16.3993 127.431 16.41V18.298ZM133.974 23.386C133.782 23.738 133.478 24.01 133.062 24.202C132.657 24.3833 132.225 24.474 131.766 24.474C131.297 24.474 130.881 24.394 130.518 24.234C130.155 24.074 129.846 23.8553 129.59 23.578C129.345 23.29 129.153 22.9593 129.014 22.586C128.886 22.2127 128.822 21.8073 128.822 21.37V16.458H130.678V21.034C130.678 21.2793 130.705 21.5087 130.758 21.722C130.822 21.9353 130.918 22.122 131.046 22.282C131.174 22.442 131.334 22.57 131.526 22.666C131.729 22.762 131.969 22.81 132.246 22.81C132.79 22.81 133.195 22.65 133.462 22.33C133.739 21.9993 133.878 21.578 133.878 21.066V16.458H135.734V22.826C135.734 23.146 135.739 23.4287 135.75 23.674C135.771 23.9087 135.793 24.1007 135.814 24.25H134.038C134.017 24.1647 134.001 24.042 133.99 23.882C133.979 23.7113 133.974 23.546 133.974 23.386ZM139.115 21.69C139.147 22.042 139.291 22.3513 139.547 22.618C139.813 22.8847 140.197 23.018 140.699 23.018C141.083 23.018 141.371 22.9327 141.563 22.762C141.765 22.5807 141.867 22.3673 141.867 22.122C141.867 21.9087 141.792 21.7273 141.643 21.578C141.493 21.4287 141.264 21.322 140.955 21.258L139.803 21.002C139.109 20.8527 138.587 20.5753 138.235 20.17C137.883 19.754 137.707 19.274 137.707 18.73C137.707 18.3887 137.781 18.0687 137.931 17.77C138.08 17.4607 138.283 17.194 138.539 16.97C138.795 16.7353 139.093 16.554 139.435 16.426C139.787 16.2873 140.165 16.218 140.571 16.218C141.115 16.218 141.568 16.298 141.931 16.458C142.304 16.6073 142.608 16.794 142.843 17.018C143.077 17.242 143.248 17.482 143.355 17.738C143.472 17.9833 143.547 18.202 143.579 18.394L142.011 18.842C141.989 18.7353 141.952 18.6127 141.899 18.474C141.845 18.3353 141.76 18.2073 141.643 18.09C141.536 17.9727 141.392 17.8767 141.211 17.802C141.04 17.7167 140.827 17.674 140.571 17.674C140.24 17.674 139.968 17.7647 139.755 17.946C139.552 18.1167 139.451 18.3247 139.451 18.57C139.451 18.7833 139.52 18.9593 139.659 19.098C139.797 19.2367 139.989 19.3327 140.235 19.386L141.419 19.626C142.155 19.786 142.709 20.0793 143.083 20.506C143.467 20.922 143.659 21.418 143.659 21.994C143.659 22.2927 143.595 22.5913 143.467 22.89C143.349 23.178 143.168 23.4447 142.923 23.69C142.688 23.9247 142.384 24.1167 142.011 24.266C141.637 24.4153 141.205 24.49 140.715 24.49C140.149 24.49 139.669 24.41 139.275 24.25C138.88 24.09 138.555 23.8927 138.299 23.658C138.043 23.4127 137.851 23.1567 137.723 22.89C137.595 22.6127 137.52 22.362 137.499 22.138L139.115 21.69ZM147.928 16.458H149.544V18.106H147.928V21.722C147.928 22.0633 148.008 22.314 148.168 22.474C148.328 22.6233 148.579 22.698 148.92 22.698C149.048 22.698 149.176 22.6927 149.304 22.682C149.432 22.6607 149.517 22.6447 149.56 22.634V24.17C149.507 24.1913 149.389 24.2233 149.208 24.266C149.027 24.3193 148.765 24.346 148.424 24.346C147.699 24.346 147.128 24.1433 146.712 23.738C146.296 23.3327 146.088 22.762 146.088 22.026V18.106H144.648V16.458H145.048C145.464 16.458 145.768 16.3407 145.96 16.106C146.152 15.8713 146.248 15.5833 146.248 15.242V14.074H147.928V16.458ZM156.493 19.498C156.483 19.274 156.435 19.0607 156.349 18.858C156.275 18.6447 156.157 18.458 155.997 18.298C155.837 18.138 155.64 18.01 155.405 17.914C155.171 17.818 154.893 17.77 154.573 17.77C154.285 17.77 154.024 17.8233 153.789 17.93C153.565 18.026 153.373 18.1593 153.213 18.33C153.053 18.49 152.925 18.6767 152.829 18.89C152.733 19.0927 152.68 19.2953 152.669 19.498H156.493ZM158.269 22.026C158.163 22.3673 158.008 22.6873 157.805 22.986C157.603 23.2847 157.352 23.546 157.053 23.77C156.755 23.994 156.413 24.17 156.029 24.298C155.645 24.426 155.219 24.49 154.749 24.49C154.216 24.49 153.709 24.3993 153.229 24.218C152.749 24.026 152.328 23.754 151.965 23.402C151.603 23.0393 151.309 22.602 151.085 22.09C150.872 21.5673 150.765 20.9753 150.765 20.314C150.765 19.6953 150.867 19.1353 151.069 18.634C151.283 18.1327 151.565 17.706 151.917 17.354C152.269 16.9913 152.675 16.714 153.133 16.522C153.592 16.3193 154.067 16.218 154.557 16.218C155.155 16.218 155.688 16.314 156.157 16.506C156.637 16.698 157.037 16.97 157.357 17.322C157.688 17.674 157.939 18.1007 158.109 18.602C158.28 19.0927 158.365 19.6473 158.365 20.266C158.365 20.4153 158.36 20.5487 158.349 20.666C158.339 20.7727 158.328 20.8367 158.317 20.858H152.621C152.632 21.1567 152.696 21.4287 152.813 21.674C152.931 21.9193 153.085 22.1327 153.277 22.314C153.469 22.4953 153.688 22.6393 153.933 22.746C154.189 22.842 154.461 22.89 154.749 22.89C155.315 22.89 155.747 22.762 156.045 22.506C156.355 22.2393 156.573 21.914 156.701 21.53L158.269 22.026ZM161.528 20.33C161.528 21.0767 161.714 21.6793 162.088 22.138C162.472 22.586 162.984 22.81 163.624 22.81C163.922 22.81 164.2 22.7513 164.456 22.634C164.712 22.506 164.93 22.3353 165.112 22.122C165.293 21.898 165.432 21.6367 165.528 21.338C165.634 21.0287 165.688 20.6873 165.688 20.314C165.688 19.5673 165.496 18.9807 165.112 18.554C164.738 18.1167 164.248 17.898 163.64 17.898C163.032 17.898 162.525 18.1167 162.12 18.554C161.725 18.9913 161.528 19.5833 161.528 20.33ZM167.48 22.826C167.48 23.178 167.49 23.4873 167.512 23.754C167.533 24.0207 167.549 24.186 167.56 24.25H165.784C165.762 24.1647 165.741 24.0153 165.72 23.802C165.709 23.5887 165.704 23.402 165.704 23.242C165.522 23.5727 165.234 23.8553 164.84 24.09C164.445 24.3247 163.97 24.442 163.416 24.442C162.85 24.442 162.338 24.3407 161.88 24.138C161.421 23.9247 161.026 23.6367 160.696 23.274C160.376 22.9007 160.125 22.4633 159.944 21.962C159.762 21.4607 159.672 20.9167 159.672 20.33C159.672 19.7753 159.762 19.2527 159.944 18.762C160.125 18.2607 160.376 17.8233 160.696 17.45C161.026 17.0767 161.421 16.7833 161.88 16.57C162.338 16.3567 162.84 16.25 163.384 16.25C163.725 16.25 164.024 16.2873 164.28 16.362C164.536 16.426 164.754 16.5167 164.936 16.634C165.128 16.7407 165.282 16.858 165.4 16.986C165.517 17.114 165.608 17.242 165.672 17.37V12.666H167.48V22.826ZM169.441 23.082C169.441 22.7407 169.569 22.4527 169.825 22.218C170.081 21.9833 170.396 21.866 170.769 21.866C171.196 21.866 171.542 22.0207 171.809 22.33C172.086 22.6393 172.225 23.05 172.225 23.562C172.225 24.1273 172.14 24.6073 171.969 25.002C171.798 25.4073 171.585 25.7433 171.329 26.01C171.073 26.2767 170.79 26.4793 170.481 26.618C170.172 26.7673 169.884 26.858 169.617 26.89V25.946C169.798 25.9033 169.974 25.8287 170.145 25.722C170.316 25.6153 170.465 25.482 170.593 25.322C170.732 25.1727 170.838 25.002 170.913 24.81C170.998 24.6287 171.041 24.4313 171.041 24.218C171.009 24.2393 170.961 24.2553 170.897 24.266C170.844 24.2873 170.764 24.298 170.657 24.298C170.305 24.298 170.012 24.1913 169.777 23.978C169.553 23.754 169.441 23.4553 169.441 23.082ZM185.078 12.906H187.11L182.822 24.25H180.87L176.646 12.906H178.726L181.894 21.738L185.078 12.906ZM192.603 19.498C192.592 19.274 192.544 19.0607 192.459 18.858C192.384 18.6447 192.267 18.458 192.107 18.298C191.947 18.138 191.749 18.01 191.515 17.914C191.28 17.818 191.003 17.77 190.683 17.77C190.395 17.77 190.133 17.8233 189.899 17.93C189.675 18.026 189.483 18.1593 189.323 18.33C189.163 18.49 189.035 18.6767 188.939 18.89C188.843 19.0927 188.789 19.2953 188.779 19.498H192.603ZM194.379 22.026C194.272 22.3673 194.117 22.6873 193.915 22.986C193.712 23.2847 193.461 23.546 193.163 23.77C192.864 23.994 192.523 24.17 192.139 24.298C191.755 24.426 191.328 24.49 190.859 24.49C190.325 24.49 189.819 24.3993 189.339 24.218C188.859 24.026 188.437 23.754 188.075 23.402C187.712 23.0393 187.419 22.602 187.195 22.09C186.981 21.5673 186.875 20.9753 186.875 20.314C186.875 19.6953 186.976 19.1353 187.179 18.634C187.392 18.1327 187.675 17.706 188.027 17.354C188.379 16.9913 188.784 16.714 189.243 16.522C189.701 16.3193 190.176 16.218 190.667 16.218C191.264 16.218 191.797 16.314 192.267 16.506C192.747 16.698 193.147 16.97 193.467 17.322C193.797 17.674 194.048 18.1007 194.219 18.602C194.389 19.0927 194.475 19.6473 194.475 20.266C194.475 20.4153 194.469 20.5487 194.459 20.666C194.448 20.7727 194.437 20.8367 194.427 20.858H188.731C188.741 21.1567 188.805 21.4287 188.923 21.674C189.04 21.9193 189.195 22.1327 189.387 22.314C189.579 22.4953 189.797 22.6393 190.043 22.746C190.299 22.842 190.571 22.89 190.859 22.89C191.424 22.89 191.856 22.762 192.155 22.506C192.464 22.2393 192.683 21.914 192.811 21.53L194.379 22.026ZM200.837 18.298C200.624 18.266 200.421 18.25 200.229 18.25C199.504 18.25 198.97 18.4473 198.629 18.842C198.298 19.2367 198.133 19.802 198.133 20.538V24.25H196.277V16.458H198.085V17.706C198.266 17.2793 198.56 16.9487 198.965 16.714C199.37 16.4793 199.829 16.362 200.341 16.362C200.458 16.362 200.56 16.3673 200.645 16.378C200.73 16.3887 200.794 16.3993 200.837 16.41V18.298ZM202.308 24.25V16.458H204.148V24.25H202.308ZM202.02 13.722C202.02 13.3807 202.138 13.0927 202.372 12.858C202.607 12.6233 202.89 12.506 203.22 12.506C203.562 12.506 203.85 12.6233 204.084 12.858C204.319 13.0927 204.436 13.3807 204.436 13.722C204.436 14.0633 204.319 14.3513 204.084 14.586C203.85 14.81 203.562 14.922 203.22 14.922C202.89 14.922 202.607 14.81 202.372 14.586C202.138 14.3513 202.02 14.0633 202.02 13.722ZM209.825 12.586C210.06 12.586 210.262 12.6073 210.433 12.65C210.614 12.682 210.737 12.714 210.801 12.746V14.33C210.748 14.3087 210.668 14.2927 210.561 14.282C210.454 14.2607 210.31 14.25 210.129 14.25C210.012 14.25 209.884 14.266 209.745 14.298C209.606 14.33 209.478 14.394 209.361 14.49C209.254 14.5753 209.164 14.698 209.089 14.858C209.014 15.0073 208.977 15.1993 208.977 15.434V16.458H214.161V24.25H212.337V18.074H208.977V24.25H207.105V18.074H205.745V16.458H207.105V15.386C207.105 14.9487 207.169 14.5593 207.297 14.218C207.436 13.866 207.622 13.5727 207.857 13.338C208.102 13.0927 208.39 12.906 208.721 12.778C209.052 12.65 209.42 12.586 209.825 12.586ZM212.049 13.706C212.049 13.3647 212.161 13.0767 212.385 12.842C212.62 12.6073 212.908 12.49 213.249 12.49C213.59 12.49 213.878 12.6073 214.113 12.842C214.348 13.0767 214.465 13.3647 214.465 13.706C214.465 14.0367 214.348 14.3193 214.113 14.554C213.878 14.7887 213.59 14.906 213.249 14.906C212.908 14.906 212.62 14.7887 212.385 14.554C212.161 14.3193 212.049 14.0367 212.049 13.706ZM221.712 19.498C221.701 19.274 221.653 19.0607 221.568 18.858C221.493 18.6447 221.376 18.458 221.216 18.298C221.056 18.138 220.859 18.01 220.624 17.914C220.389 17.818 220.112 17.77 219.792 17.77C219.504 17.77 219.243 17.8233 219.008 17.93C218.784 18.026 218.592 18.1593 218.432 18.33C218.272 18.49 218.144 18.6767 218.048 18.89C217.952 19.0927 217.899 19.2953 217.888 19.498H221.712ZM223.488 22.026C223.381 22.3673 223.227 22.6873 223.024 22.986C222.821 23.2847 222.571 23.546 222.272 23.77C221.973 23.994 221.632 24.17 221.248 24.298C220.864 24.426 220.437 24.49 219.968 24.49C219.435 24.49 218.928 24.3993 218.448 24.218C217.968 24.026 217.547 23.754 217.184 23.402C216.821 23.0393 216.528 22.602 216.304 22.09C216.091 21.5673 215.984 20.9753 215.984 20.314C215.984 19.6953 216.085 19.1353 216.288 18.634C216.501 18.1327 216.784 17.706 217.136 17.354C217.488 16.9913 217.893 16.714 218.352 16.522C218.811 16.3193 219.285 16.218 219.776 16.218C220.373 16.218 220.907 16.314 221.376 16.506C221.856 16.698 222.256 16.97 222.576 17.322C222.907 17.674 223.157 18.1007 223.328 18.602C223.499 19.0927 223.584 19.6473 223.584 20.266C223.584 20.4153 223.579 20.5487 223.568 20.666C223.557 20.7727 223.547 20.8367 223.536 20.858H217.84C217.851 21.1567 217.915 21.4287 218.032 21.674C218.149 21.9193 218.304 22.1327 218.496 22.314C218.688 22.4953 218.907 22.6393 219.152 22.746C219.408 22.842 219.68 22.89 219.968 22.89C220.533 22.89 220.965 22.762 221.264 22.506C221.573 22.2393 221.792 21.914 221.92 21.53L223.488 22.026ZM226.746 20.33C226.746 21.0767 226.933 21.6793 227.306 22.138C227.69 22.586 228.202 22.81 228.842 22.81C229.141 22.81 229.418 22.7513 229.674 22.634C229.93 22.506 230.149 22.3353 230.33 22.122C230.512 21.898 230.65 21.6367 230.746 21.338C230.853 21.0287 230.906 20.6873 230.906 20.314C230.906 19.5673 230.714 18.9807 230.33 18.554C229.957 18.1167 229.466 17.898 228.858 17.898C228.25 17.898 227.744 18.1167 227.338 18.554C226.944 18.9913 226.746 19.5833 226.746 20.33ZM232.698 22.826C232.698 23.178 232.709 23.4873 232.73 23.754C232.752 24.0207 232.768 24.186 232.778 24.25H231.002C230.981 24.1647 230.96 24.0153 230.938 23.802C230.928 23.5887 230.922 23.402 230.922 23.242C230.741 23.5727 230.453 23.8553 230.058 24.09C229.664 24.3247 229.189 24.442 228.634 24.442C228.069 24.442 227.557 24.3407 227.098 24.138C226.64 23.9247 226.245 23.6367 225.914 23.274C225.594 22.9007 225.344 22.4633 225.162 21.962C224.981 21.4607 224.89 20.9167 224.89 20.33C224.89 19.7753 224.981 19.2527 225.162 18.762C225.344 18.2607 225.594 17.8233 225.914 17.45C226.245 17.0767 226.64 16.7833 227.098 16.57C227.557 16.3567 228.058 16.25 228.602 16.25C228.944 16.25 229.242 16.2873 229.498 16.362C229.754 16.426 229.973 16.5167 230.154 16.634C230.346 16.7407 230.501 16.858 230.618 16.986C230.736 17.114 230.826 17.242 230.89 17.37V12.666H232.698V22.826ZM242.487 19.77H241.079V24.25H239.143V12.906H243.495C244.039 12.906 244.529 12.9967 244.967 13.178C245.415 13.3487 245.788 13.594 246.087 13.914C246.396 14.2233 246.631 14.586 246.791 15.002C246.961 15.418 247.047 15.866 247.047 16.346C247.047 17.1567 246.817 17.85 246.359 18.426C245.911 19.002 245.287 19.386 244.487 19.578L247.047 24.25H244.871L242.487 19.77ZM243.143 18.074C243.74 18.074 244.215 17.9193 244.567 17.61C244.919 17.29 245.095 16.8687 245.095 16.346C245.095 15.8127 244.919 15.3913 244.567 15.082C244.215 14.762 243.74 14.602 243.143 14.602H241.079V18.074H243.143ZM253.79 19.498C253.78 19.274 253.732 19.0607 253.646 18.858C253.572 18.6447 253.454 18.458 253.294 18.298C253.134 18.138 252.937 18.01 252.702 17.914C252.468 17.818 252.19 17.77 251.87 17.77C251.582 17.77 251.321 17.8233 251.086 17.93C250.862 18.026 250.67 18.1593 250.51 18.33C250.35 18.49 250.222 18.6767 250.126 18.89C250.03 19.0927 249.977 19.2953 249.966 19.498H253.79ZM255.566 22.026C255.46 22.3673 255.305 22.6873 255.102 22.986C254.9 23.2847 254.649 23.546 254.35 23.77C254.052 23.994 253.71 24.17 253.326 24.298C252.942 24.426 252.516 24.49 252.046 24.49C251.513 24.49 251.006 24.3993 250.526 24.218C250.046 24.026 249.625 23.754 249.262 23.402C248.9 23.0393 248.606 22.602 248.382 22.09C248.169 21.5673 248.062 20.9753 248.062 20.314C248.062 19.6953 248.164 19.1353 248.366 18.634C248.58 18.1327 248.862 17.706 249.214 17.354C249.566 16.9913 249.972 16.714 250.43 16.522C250.889 16.3193 251.364 16.218 251.854 16.218C252.452 16.218 252.985 16.314 253.454 16.506C253.934 16.698 254.334 16.97 254.654 17.322C254.985 17.674 255.236 18.1007 255.406 18.602C255.577 19.0927 255.662 19.6473 255.662 20.266C255.662 20.4153 255.657 20.5487 255.646 20.666C255.636 20.7727 255.625 20.8367 255.614 20.858H249.918C249.929 21.1567 249.993 21.4287 250.11 21.674C250.228 21.9193 250.382 22.1327 250.574 22.314C250.766 22.4953 250.985 22.6393 251.23 22.746C251.486 22.842 251.758 22.89 252.046 22.89C252.612 22.89 253.044 22.762 253.342 22.506C253.652 22.2393 253.87 21.914 253.998 21.53L255.566 22.026ZM261.327 24.25H259.471L256.303 16.458H258.351L260.415 22.026L262.431 16.458H264.383L261.327 24.25ZM265.855 24.25V16.458H267.695V24.25H265.855ZM265.567 13.722C265.567 13.3807 265.684 13.0927 265.919 12.858C266.154 12.6233 266.436 12.506 266.767 12.506C267.108 12.506 267.396 12.6233 267.631 12.858C267.866 13.0927 267.983 13.3807 267.983 13.722C267.983 14.0633 267.866 14.3513 267.631 14.586C267.396 14.81 267.108 14.922 266.767 14.922C266.436 14.922 266.154 14.81 265.919 14.586C265.684 14.3513 265.567 14.0633 265.567 13.722ZM275.228 19.498C275.217 19.274 275.169 19.0607 275.084 18.858C275.009 18.6447 274.892 18.458 274.732 18.298C274.572 18.138 274.374 18.01 274.14 17.914C273.905 17.818 273.628 17.77 273.308 17.77C273.02 17.77 272.758 17.8233 272.524 17.93C272.3 18.026 272.108 18.1593 271.948 18.33C271.788 18.49 271.66 18.6767 271.564 18.89C271.468 19.0927 271.414 19.2953 271.404 19.498H275.228ZM277.004 22.026C276.897 22.3673 276.742 22.6873 276.54 22.986C276.337 23.2847 276.086 23.546 275.788 23.77C275.489 23.994 275.148 24.17 274.764 24.298C274.38 24.426 273.953 24.49 273.484 24.49C272.95 24.49 272.444 24.3993 271.964 24.218C271.484 24.026 271.062 23.754 270.7 23.402C270.337 23.0393 270.044 22.602 269.82 22.09C269.606 21.5673 269.5 20.9753 269.5 20.314C269.5 19.6953 269.601 19.1353 269.804 18.634C270.017 18.1327 270.3 17.706 270.652 17.354C271.004 16.9913 271.409 16.714 271.868 16.522C272.326 16.3193 272.801 16.218 273.292 16.218C273.889 16.218 274.422 16.314 274.892 16.506C275.372 16.698 275.772 16.97 276.092 17.322C276.422 17.674 276.673 18.1007 276.844 18.602C277.014 19.0927 277.1 19.6473 277.1 20.266C277.1 20.4153 277.094 20.5487 277.084 20.666C277.073 20.7727 277.062 20.8367 277.052 20.858H271.356C271.366 21.1567 271.43 21.4287 271.548 21.674C271.665 21.9193 271.82 22.1327 272.012 22.314C272.204 22.4953 272.422 22.6393 272.668 22.746C272.924 22.842 273.196 22.89 273.484 22.89C274.049 22.89 274.481 22.762 274.78 22.506C275.089 22.2393 275.308 21.914 275.436 21.53L277.004 22.026ZM285.257 16.458L287.097 21.85L288.649 16.458H290.537L288.041 24.25H286.185L284.249 18.65L282.361 24.25H280.457L277.929 16.458H279.913L281.497 21.85L283.337 16.458H285.257ZM293.068 21.69C293.1 22.042 293.244 22.3513 293.5 22.618C293.766 22.8847 294.15 23.018 294.652 23.018C295.036 23.018 295.324 22.9327 295.516 22.762C295.718 22.5807 295.82 22.3673 295.82 22.122C295.82 21.9087 295.745 21.7273 295.596 21.578C295.446 21.4287 295.217 21.322 294.908 21.258L293.756 21.002C293.062 20.8527 292.54 20.5753 292.188 20.17C291.836 19.754 291.66 19.274 291.66 18.73C291.66 18.3887 291.734 18.0687 291.884 17.77C292.033 17.4607 292.236 17.194 292.492 16.97C292.748 16.7353 293.046 16.554 293.388 16.426C293.74 16.2873 294.118 16.218 294.524 16.218C295.068 16.218 295.521 16.298 295.884 16.458C296.257 16.6073 296.561 16.794 296.796 17.018C297.03 17.242 297.201 17.482 297.308 17.738C297.425 17.9833 297.5 18.202 297.532 18.394L295.964 18.842C295.942 18.7353 295.905 18.6127 295.852 18.474C295.798 18.3353 295.713 18.2073 295.596 18.09C295.489 17.9727 295.345 17.8767 295.164 17.802C294.993 17.7167 294.78 17.674 294.524 17.674C294.193 17.674 293.921 17.7647 293.708 17.946C293.505 18.1167 293.404 18.3247 293.404 18.57C293.404 18.7833 293.473 18.9593 293.612 19.098C293.75 19.2367 293.942 19.3327 294.188 19.386L295.372 19.626C296.108 19.786 296.662 20.0793 297.036 20.506C297.42 20.922 297.612 21.418 297.612 21.994C297.612 22.2927 297.548 22.5913 297.42 22.89C297.302 23.178 297.121 23.4447 296.876 23.69C296.641 23.9247 296.337 24.1167 295.964 24.266C295.59 24.4153 295.158 24.49 294.668 24.49C294.102 24.49 293.622 24.41 293.228 24.25C292.833 24.09 292.508 23.8927 292.252 23.658C291.996 23.4127 291.804 23.1567 291.676 22.89C291.548 22.6127 291.473 22.362 291.452 22.138L293.068 21.69Z" fill="#0D101A"/>
<path d="M79.9491 43.5924C80.211 42.7863 81.3515 42.7863 81.6134 43.5924L82.3528 45.8681C82.47 46.2286 82.8059 46.4727 83.185 46.4727H85.5778C86.4255 46.4727 86.7779 47.5574 86.0922 48.0556L84.1563 49.4621C83.8496 49.6849 83.7213 50.0798 83.8385 50.4404L84.5779 52.7161C84.8398 53.5222 83.9171 54.1926 83.2314 53.6944L81.2956 52.2879C80.9889 52.0651 80.5736 52.0651 80.2669 52.2879L78.3311 53.6944C77.6454 54.1926 76.7227 53.5222 76.9846 52.7161L77.724 50.4404C77.8412 50.0799 77.7129 49.6849 77.4062 49.4621L75.4703 48.0556C74.7846 47.5574 75.137 46.4727 75.9847 46.4727H78.3775C78.7566 46.4727 79.0925 46.2286 79.2097 45.8681L79.9491 43.5924Z" fill="#FEDF89"/>
<path d="M97.8866 43.5924C98.1485 42.7863 99.289 42.7863 99.5509 43.5924L100.29 45.8681C100.407 46.2286 100.743 46.4727 101.123 46.4727H103.515C104.363 46.4727 104.715 47.5574 104.03 48.0556L102.094 49.4621C101.787 49.6849 101.659 50.0798 101.776 50.4404L102.515 52.7161C102.777 53.5222 101.855 54.1926 101.169 53.6944L99.2331 52.2879C98.9264 52.0651 98.5111 52.0651 98.2044 52.2879L96.2686 53.6944C95.5829 54.1926 94.6602 53.5222 94.9221 52.7161L95.6615 50.4404C95.7787 50.0799 95.6504 49.6849 95.3437 49.4621L93.4078 48.0556C92.7221 47.5574 93.0745 46.4727 93.9222 46.4727H96.315C96.6941 46.4727 97.03 46.2286 97.1472 45.8681L97.8866 43.5924Z" fill="#FEDF89"/>
<path d="M115.824 43.5924C116.086 42.7863 117.226 42.7863 117.488 43.5924L118.228 45.8681C118.345 46.2286 118.681 46.4727 119.06 46.4727H121.453C122.3 46.4727 122.653 47.5574 121.967 48.0556L120.031 49.4621C119.725 49.6849 119.596 50.0798 119.713 50.4404L120.453 52.7161C120.715 53.5222 119.792 54.1926 119.106 53.6944L117.171 52.2879C116.864 52.0651 116.449 52.0651 116.142 52.2879L114.206 53.6944C113.52 54.1926 112.598 53.5222 112.86 52.7161L113.599 50.4404C113.716 50.0799 113.588 49.6849 113.281 49.4621L111.345 48.0556C110.66 47.5574 111.012 46.4727 111.86 46.4727H114.252C114.632 46.4727 114.968 46.2286 115.085 45.8681L115.824 43.5924Z" fill="#FEDF89"/>
<path d="M133.762 43.5924C134.024 42.7863 135.164 42.7863 135.426 43.5924L136.165 45.8681C136.282 46.2286 136.618 46.4727 136.998 46.4727H139.39C140.238 46.4727 140.59 47.5574 139.905 48.0556L137.969 49.4621C137.662 49.6849 137.534 50.0798 137.651 50.4404L138.39 52.7161C138.652 53.5222 137.73 54.1926 137.044 53.6944L135.108 52.2879C134.801 52.0651 134.386 52.0651 134.079 52.2879L132.144 53.6944C131.458 54.1926 130.535 53.5222 130.797 52.7161L131.537 50.4404C131.654 50.0799 131.525 49.6849 131.219 49.4621L129.283 48.0556C128.597 47.5574 128.95 46.4727 129.797 46.4727H132.19C132.569 46.4727 132.905 46.2286 133.022 45.8681L133.762 43.5924Z" fill="#FEDF89"/>
<path d="M153.176 43.6533L153.916 45.929C154.059 46.3706 154.471 46.6696 154.935 46.6696H157.328C157.985 46.6696 158.258 47.5102 157.726 47.8964L155.791 49.3028C155.415 49.5758 155.258 50.0596 155.401 50.5012L156.141 52.7769C156.344 53.4017 155.629 53.9212 155.097 53.5351L153.161 52.1286C152.786 51.8557 152.277 51.8557 151.901 52.1286L149.965 53.5351C149.434 53.9212 148.719 53.4017 148.922 52.7769L149.661 50.5012C149.805 50.0596 149.648 49.5758 149.272 49.3028L147.336 47.8963C146.805 47.5102 147.078 46.6696 147.735 46.6696H150.127C150.592 46.6696 151.003 46.3706 151.147 45.929L151.886 43.6533C152.089 43.0285 152.973 43.0285 153.176 43.6533Z" fill="url(#paint0_linear_1474_6071)" stroke="#FEDF89" stroke-width="0.39375"/>
<path d="M165.509 48.1242C165.5 48.0589 165.491 47.9796 165.481 47.8862C165.472 47.7929 165.467 47.6996 165.467 47.6062C165.467 47.2142 165.537 46.8409 165.677 46.4862C165.827 46.1222 166.037 45.8049 166.307 45.5342C166.587 45.2542 166.928 45.0349 167.329 44.8762C167.731 44.7082 168.188 44.6242 168.701 44.6242C169.205 44.6242 169.653 44.7036 170.045 44.8622C170.437 45.0116 170.769 45.2169 171.039 45.4782C171.319 45.7302 171.529 46.0289 171.669 46.3742C171.819 46.7196 171.893 47.0882 171.893 47.4802C171.893 48.0682 171.739 48.6002 171.431 49.0762C171.123 49.5522 170.694 49.9582 170.143 50.2942L168.379 51.3862C168.165 51.5169 167.973 51.6662 167.805 51.8342C167.637 52.0022 167.521 52.1982 167.455 52.4222H171.949V53.9062H165.383C165.393 53.5142 165.435 53.1456 165.509 52.8002C165.584 52.4549 165.705 52.1282 165.873 51.8202C166.041 51.5029 166.261 51.2089 166.531 50.9382C166.811 50.6582 167.147 50.3969 167.539 50.1542L169.037 49.2162C169.448 48.9642 169.742 48.6982 169.919 48.4182C170.106 48.1382 170.199 47.8349 170.199 47.5082C170.199 47.3216 170.167 47.1442 170.101 46.9762C170.036 46.8082 169.938 46.6589 169.807 46.5282C169.686 46.3976 169.527 46.2949 169.331 46.2202C169.145 46.1362 168.925 46.0942 168.673 46.0942C168.141 46.0942 167.745 46.2576 167.483 46.5842C167.222 46.9016 167.091 47.2982 167.091 47.7742C167.091 47.8489 167.096 47.9282 167.105 48.0122C167.115 48.0869 167.124 48.1616 167.133 48.2362L165.509 48.1242ZM173.889 52.2262C174.067 52.3382 174.305 52.4362 174.603 52.5202C174.911 52.6042 175.215 52.6462 175.513 52.6462C175.989 52.6462 176.409 52.5809 176.773 52.4502C177.137 52.3102 177.445 52.1142 177.697 51.8622C177.949 51.6102 178.145 51.3116 178.285 50.9662C178.425 50.6116 178.505 50.2196 178.523 49.7903C178.355 50.0889 178.08 50.3409 177.697 50.5462C177.315 50.7422 176.853 50.8402 176.311 50.8402C175.901 50.8402 175.504 50.7749 175.121 50.6442C174.748 50.5042 174.417 50.3036 174.127 50.0422C173.838 49.7809 173.605 49.4636 173.427 49.0902C173.259 48.7076 173.175 48.2736 173.175 47.7882C173.175 47.3216 173.264 46.8969 173.441 46.5143C173.619 46.1222 173.861 45.7862 174.169 45.5062C174.477 45.2262 174.837 45.0116 175.247 44.8622C175.667 44.7036 176.115 44.6242 176.591 44.6242C177.067 44.6242 177.52 44.7082 177.949 44.8762C178.379 45.0442 178.757 45.3056 179.083 45.6602C179.419 46.0056 179.685 46.4442 179.881 46.9762C180.077 47.5082 180.175 48.1382 180.175 48.8662C180.175 49.6876 180.077 50.4249 179.881 51.0782C179.685 51.7222 179.391 52.2729 178.999 52.7302C178.617 53.1782 178.131 53.5236 177.543 53.7662C176.965 53.9996 176.293 54.1163 175.527 54.1163C175.154 54.1163 174.767 54.0696 174.365 53.9763C173.973 53.8829 173.661 53.7569 173.427 53.5982L173.889 52.2262ZM178.299 47.7322C178.299 47.4802 178.253 47.2516 178.159 47.0462C178.066 46.8409 177.935 46.6636 177.767 46.5143C177.609 46.3649 177.422 46.2529 177.207 46.1782C177.002 46.0942 176.787 46.0522 176.563 46.0522C176.33 46.0522 176.106 46.0942 175.891 46.1782C175.686 46.2529 175.504 46.3649 175.345 46.5143C175.187 46.6542 175.061 46.8316 174.967 47.0462C174.874 47.2516 174.827 47.4802 174.827 47.7322C174.827 48.0029 174.874 48.2409 174.967 48.4462C175.061 48.6516 175.187 48.8289 175.345 48.9782C175.504 49.1276 175.686 49.2396 175.891 49.3142C176.106 49.3889 176.33 49.4262 176.563 49.4262C176.787 49.4262 177.002 49.3889 177.207 49.3142C177.422 49.2302 177.609 49.1182 177.767 48.9782C177.935 48.8289 178.066 48.6516 178.159 48.4462C178.253 48.2316 178.299 47.9936 178.299 47.7322ZM181.273 52.8842C181.273 52.5856 181.385 52.3336 181.609 52.1282C181.833 51.9229 182.108 51.8202 182.435 51.8202C182.808 51.8202 183.111 51.9556 183.345 52.2262C183.587 52.4969 183.709 52.8562 183.709 53.3042C183.709 53.7989 183.634 54.2189 183.485 54.5643C183.335 54.9189 183.149 55.2129 182.925 55.4463C182.701 55.6796 182.453 55.8569 182.183 55.9783C181.912 56.1089 181.66 56.1883 181.427 56.2163V55.3903C181.585 55.3529 181.739 55.2876 181.889 55.1943C182.038 55.1009 182.169 54.9843 182.281 54.8443C182.402 54.7136 182.495 54.5643 182.561 54.3963C182.635 54.2376 182.673 54.0649 182.673 53.8782C182.645 53.8969 182.603 53.9109 182.547 53.9203C182.5 53.9389 182.43 53.9483 182.337 53.9483C182.029 53.9483 181.772 53.8549 181.567 53.6682C181.371 53.4722 181.273 53.2109 181.273 52.8842ZM184.848 50.0982L188.712 44.8342H190.868V50.4342H192.394V51.9182H190.868V53.9062H189.216V51.9182H184.848V50.0982ZM189.216 46.5282L186.36 50.4342H189.216V46.5282ZM196.827 48.6142C197.284 48.6142 197.648 48.4882 197.919 48.2362C198.189 47.9842 198.325 47.6669 198.325 47.2842C198.325 46.9389 198.189 46.6402 197.919 46.3882C197.657 46.1269 197.293 45.9963 196.827 45.9963C196.36 45.9963 195.996 46.1269 195.735 46.3882C195.473 46.6402 195.343 46.9389 195.343 47.2842C195.343 47.6669 195.478 47.9842 195.749 48.2362C196.019 48.4882 196.379 48.6142 196.827 48.6142ZM196.827 52.7022C197.387 52.7022 197.811 52.5669 198.101 52.2962C198.39 52.0162 198.535 51.6896 198.535 51.3162C198.535 50.9429 198.39 50.6162 198.101 50.3362C197.811 50.0562 197.387 49.9162 196.827 49.9162C196.276 49.9162 195.856 50.0562 195.567 50.3362C195.277 50.6162 195.133 50.9429 195.133 51.3162C195.133 51.6896 195.277 52.0162 195.567 52.2962C195.856 52.5669 196.276 52.7022 196.827 52.7022ZM196.827 54.1163C196.304 54.1163 195.837 54.0509 195.427 53.9203C195.016 53.7896 194.661 53.6076 194.363 53.3742C194.073 53.1316 193.849 52.8516 193.691 52.5342C193.541 52.2169 193.467 51.8669 193.467 51.4842C193.467 50.9616 193.625 50.5042 193.943 50.1122C194.26 49.7109 194.661 49.4262 195.147 49.2582C194.708 49.0996 194.353 48.8289 194.083 48.4462C193.812 48.0542 193.677 47.6342 193.677 47.1862C193.677 46.8129 193.756 46.4676 193.915 46.1502C194.073 45.8329 194.293 45.5622 194.573 45.3382C194.853 45.1142 195.184 44.9416 195.567 44.8202C195.949 44.6896 196.369 44.6242 196.827 44.6242C197.284 44.6242 197.704 44.6896 198.087 44.8202C198.479 44.9416 198.815 45.1142 199.095 45.3382C199.375 45.5622 199.594 45.8329 199.753 46.1502C199.911 46.4676 199.991 46.8129 199.991 47.1862C199.991 47.4102 199.953 47.6296 199.879 47.8442C199.813 48.0496 199.715 48.2456 199.585 48.4322C199.454 48.6189 199.295 48.7822 199.109 48.9222C198.931 49.0622 198.735 49.1742 198.521 49.2582C198.754 49.3422 198.973 49.4589 199.179 49.6082C199.384 49.7482 199.561 49.9162 199.711 50.1122C199.869 50.2989 199.991 50.5089 200.075 50.7422C200.159 50.9756 200.201 51.2229 200.201 51.4842C200.201 51.8669 200.121 52.2169 199.963 52.5342C199.813 52.8516 199.589 53.1316 199.291 53.3742C199.001 53.6076 198.647 53.7896 198.227 53.9203C197.816 54.0509 197.349 54.1163 196.827 54.1163ZM204.879 48.6142C205.337 48.6142 205.701 48.4882 205.971 48.2362C206.242 47.9842 206.377 47.6669 206.377 47.2842C206.377 46.9389 206.242 46.6402 205.971 46.3882C205.71 46.1269 205.346 45.9963 204.879 45.9963C204.413 45.9963 204.049 46.1269 203.787 46.3882C203.526 46.6402 203.395 46.9389 203.395 47.2842C203.395 47.6669 203.531 47.9842 203.801 48.2362C204.072 48.4882 204.431 48.6142 204.879 48.6142ZM204.879 52.7022C205.439 52.7022 205.864 52.5669 206.153 52.2962C206.443 52.0162 206.587 51.6896 206.587 51.3162C206.587 50.9429 206.443 50.6162 206.153 50.3362C205.864 50.0562 205.439 49.9162 204.879 49.9162C204.329 49.9162 203.909 50.0562 203.619 50.3362C203.33 50.6162 203.185 50.9429 203.185 51.3162C203.185 51.6896 203.33 52.0162 203.619 52.2962C203.909 52.5669 204.329 52.7022 204.879 52.7022ZM204.879 54.1163C204.357 54.1163 203.89 54.0509 203.479 53.9203C203.069 53.7896 202.714 53.6076 202.415 53.3742C202.126 53.1316 201.902 52.8516 201.743 52.5342C201.594 52.2169 201.519 51.8669 201.519 51.4842C201.519 50.9616 201.678 50.5042 201.995 50.1122C202.313 49.7109 202.714 49.4262 203.199 49.2582C202.761 49.0996 202.406 48.8289 202.135 48.4462C201.865 48.0542 201.729 47.6342 201.729 47.1862C201.729 46.8129 201.809 46.4676 201.967 46.1502C202.126 45.8329 202.345 45.5622 202.625 45.3382C202.905 45.1142 203.237 44.9416 203.619 44.8202C204.002 44.6896 204.422 44.6242 204.879 44.6242C205.337 44.6242 205.757 44.6896 206.139 44.8202C206.531 44.9416 206.867 45.1142 207.147 45.3382C207.427 45.5622 207.647 45.8329 207.805 46.1502C207.964 46.4676 208.043 46.8129 208.043 47.1862C208.043 47.4102 208.006 47.6296 207.931 47.8442C207.866 48.0496 207.768 48.2456 207.637 48.4322C207.507 48.6189 207.348 48.7822 207.161 48.9222C206.984 49.0622 206.788 49.1742 206.573 49.2582C206.807 49.3422 207.026 49.4589 207.231 49.6082C207.437 49.7482 207.614 49.9162 207.763 50.1122C207.922 50.2989 208.043 50.5089 208.127 50.7422C208.211 50.9756 208.253 51.2229 208.253 51.4842C208.253 51.8669 208.174 52.2169 208.015 52.5342C207.866 52.8516 207.642 53.1316 207.343 53.3742C207.054 53.6076 206.699 53.7896 206.279 53.9203C205.869 54.0509 205.402 54.1163 204.879 54.1163ZM217.303 48.6982C217.116 48.6702 216.939 48.6562 216.771 48.6562C216.136 48.6562 215.669 48.8289 215.371 49.1742C215.081 49.5196 214.937 50.0142 214.937 50.6582V53.9062H213.313V47.0882H214.895V48.1802C215.053 47.8069 215.31 47.5176 215.665 47.3122C216.019 47.1069 216.421 47.0042 216.869 47.0042C216.971 47.0042 217.06 47.0089 217.135 47.0182C217.209 47.0276 217.265 47.0369 217.303 47.0462V48.6982ZM218.17 52.0583C218.17 51.7502 218.221 51.4796 218.324 51.2462C218.436 51.0129 218.581 50.8122 218.758 50.6442C218.945 50.4669 219.164 50.3269 219.416 50.2242C219.668 50.1216 219.939 50.0469 220.228 50.0002L221.978 49.7342C222.174 49.7062 222.305 49.6502 222.37 49.5662C222.445 49.4729 222.482 49.3656 222.482 49.2442C222.482 48.9549 222.379 48.7122 222.174 48.5162C221.969 48.3109 221.642 48.2082 221.194 48.2082C220.765 48.2082 220.433 48.3296 220.2 48.5722C219.967 48.8056 219.831 49.0949 219.794 49.4402L218.31 49.1042C218.338 48.8149 218.427 48.5349 218.576 48.2642C218.725 47.9936 218.921 47.7556 219.164 47.5502C219.407 47.3449 219.696 47.1816 220.032 47.0602C220.377 46.9389 220.76 46.8782 221.18 46.8782C221.703 46.8782 222.146 46.9482 222.51 47.0882C222.883 47.2282 223.182 47.4149 223.406 47.6482C223.639 47.8816 223.807 48.1522 223.91 48.4602C224.022 48.7682 224.078 49.0902 224.078 49.4262V52.8142C224.078 53.1222 224.087 53.3742 224.106 53.5702C224.134 53.7569 224.153 53.8689 224.162 53.9062H222.65C222.641 53.8876 222.627 53.8082 222.608 53.6682C222.589 53.5189 222.58 53.3089 222.58 53.0382C222.421 53.2996 222.169 53.5469 221.824 53.7802C221.479 54.0043 221.031 54.1163 220.48 54.1163C220.125 54.1163 219.803 54.0603 219.514 53.9483C219.234 53.8362 218.991 53.6869 218.786 53.5002C218.59 53.3042 218.436 53.0849 218.324 52.8422C218.221 52.5902 218.17 52.3289 218.17 52.0583ZM220.788 52.8422C221.012 52.8422 221.227 52.8142 221.432 52.7582C221.637 52.6929 221.815 52.5949 221.964 52.4642C222.123 52.3242 222.249 52.1422 222.342 51.9182C222.435 51.6942 222.482 51.4142 222.482 51.0782V50.7702L220.704 51.0362C220.452 51.0829 220.237 51.1809 220.06 51.3302C219.883 51.4702 219.794 51.6802 219.794 51.9602C219.794 52.1936 219.878 52.3989 220.046 52.5762C220.214 52.7536 220.461 52.8422 220.788 52.8422ZM228.129 47.0882H229.543V48.5302H228.129V51.6942C228.129 51.9929 228.199 52.2122 228.339 52.3522C228.479 52.4829 228.698 52.5482 228.997 52.5482C229.109 52.5482 229.221 52.5436 229.333 52.5342C229.445 52.5156 229.519 52.5016 229.557 52.4922V53.8362C229.51 53.8549 229.407 53.8829 229.249 53.9203C229.09 53.9669 228.861 53.9903 228.563 53.9903C227.928 53.9903 227.429 53.8129 227.065 53.4582C226.701 53.1036 226.519 52.6042 226.519 51.9602V48.5302H225.259V47.0882H225.609C225.973 47.0882 226.239 46.9856 226.407 46.7802C226.575 46.5749 226.659 46.3229 226.659 46.0242V45.0022H228.129V47.0882ZM231.1 53.9062V47.0882H232.71V53.9062H231.1ZM230.848 44.6942C230.848 44.3956 230.95 44.1436 231.156 43.9382C231.361 43.7329 231.608 43.6302 231.898 43.6302C232.196 43.6302 232.448 43.7329 232.654 43.9382C232.859 44.1436 232.962 44.3956 232.962 44.6942C232.962 44.9929 232.859 45.2449 232.654 45.4502C232.448 45.6462 232.196 45.7442 231.898 45.7442C231.608 45.7442 231.361 45.6462 231.156 45.4502C230.95 45.2449 230.848 44.9929 230.848 44.6942ZM236.347 53.9062H234.723V47.0882H236.305V47.9982C236.529 47.6062 236.823 47.3262 237.187 47.1582C237.56 46.9809 237.938 46.8922 238.321 46.8922C238.741 46.8922 239.105 46.9622 239.413 47.1022C239.721 47.2422 239.973 47.4382 240.169 47.6902C240.374 47.9329 240.528 48.2176 240.631 48.5442C240.734 48.8709 240.785 49.2209 240.785 49.5942V53.9062H239.161V49.8742C239.161 49.4542 239.054 49.0996 238.839 48.8102C238.634 48.5116 238.274 48.3622 237.761 48.3622C237.294 48.3622 236.94 48.5209 236.697 48.8382C236.464 49.1462 236.347 49.5242 236.347 49.9722V53.9062ZM243.799 53.8922C243.855 54.3123 244.032 54.6623 244.331 54.9423C244.639 55.2223 245.031 55.3623 245.507 55.3623C246.795 55.3623 247.439 54.6809 247.439 53.3182V52.6042C247.289 52.8749 247.047 53.1082 246.711 53.3042C246.384 53.5002 245.969 53.5982 245.465 53.5982C245.007 53.5982 244.587 53.5142 244.205 53.3462C243.822 53.1782 243.491 52.9496 243.211 52.6602C242.931 52.3616 242.711 52.0116 242.553 51.6102C242.394 51.1996 242.315 50.7562 242.315 50.2802C242.315 49.8229 242.389 49.3936 242.539 48.9922C242.697 48.5909 242.912 48.2409 243.183 47.9422C243.463 47.6436 243.794 47.4056 244.177 47.2282C244.569 47.0509 244.998 46.9622 245.465 46.9622C245.997 46.9622 246.426 47.0602 246.753 47.2562C247.089 47.4429 247.331 47.6762 247.481 47.9562V47.0882H249.049V53.2622C249.049 53.7196 248.983 54.1583 248.853 54.5783C248.731 54.9983 248.531 55.3716 248.251 55.6983C247.98 56.0249 247.621 56.2863 247.173 56.4823C246.734 56.6783 246.193 56.7763 245.549 56.7763C245.101 56.7763 244.685 56.7109 244.303 56.5803C243.929 56.4496 243.598 56.2723 243.309 56.0483C243.029 55.8243 242.8 55.5583 242.623 55.2503C242.455 54.9516 242.347 54.6296 242.301 54.2843L243.799 53.8922ZM245.731 52.2122C246.253 52.2122 246.673 52.0396 246.991 51.6942C247.317 51.3396 247.481 50.8682 247.481 50.2802C247.481 49.9909 247.434 49.7296 247.341 49.4962C247.257 49.2536 247.135 49.0482 246.977 48.8802C246.827 48.7122 246.645 48.5862 246.431 48.5022C246.216 48.4089 245.983 48.3622 245.731 48.3622C245.208 48.3622 244.779 48.5349 244.443 48.8802C244.116 49.2256 243.953 49.6922 243.953 50.2802C243.953 50.8776 244.116 51.3489 244.443 51.6942C244.769 52.0396 245.199 52.2122 245.731 52.2122ZM251.999 51.6662C252.027 51.9742 252.153 52.2449 252.377 52.4782C252.61 52.7116 252.946 52.8282 253.385 52.8282C253.721 52.8282 253.973 52.7536 254.141 52.6042C254.318 52.4456 254.407 52.2589 254.407 52.0442C254.407 51.8576 254.341 51.6989 254.211 51.5682C254.08 51.4376 253.879 51.3442 253.609 51.2882L252.601 51.0642C251.994 50.9336 251.537 50.6909 251.229 50.3362C250.921 49.9722 250.767 49.5522 250.767 49.0762C250.767 48.7776 250.832 48.4976 250.963 48.2362C251.093 47.9656 251.271 47.7322 251.495 47.5362C251.719 47.3309 251.98 47.1722 252.279 47.0602C252.587 46.9389 252.918 46.8782 253.273 46.8782C253.749 46.8782 254.145 46.9482 254.463 47.0882C254.789 47.2189 255.055 47.3822 255.261 47.5782C255.466 47.7742 255.615 47.9842 255.709 48.2082C255.811 48.4229 255.877 48.6142 255.905 48.7822L254.533 49.1742C254.514 49.0809 254.481 48.9736 254.435 48.8522C254.388 48.7309 254.313 48.6189 254.211 48.5162C254.117 48.4136 253.991 48.3296 253.833 48.2642C253.683 48.1896 253.497 48.1522 253.273 48.1522C252.983 48.1522 252.745 48.2316 252.559 48.3902C252.381 48.5396 252.293 48.7216 252.293 48.9362C252.293 49.1229 252.353 49.2769 252.475 49.3982C252.596 49.5196 252.764 49.6036 252.979 49.6502L254.015 49.8602C254.659 50.0002 255.144 50.2569 255.471 50.6302C255.807 50.9942 255.975 51.4282 255.975 51.9322C255.975 52.1936 255.919 52.4549 255.807 52.7162C255.704 52.9682 255.545 53.2016 255.331 53.4162C255.125 53.6216 254.859 53.7896 254.533 53.9203C254.206 54.0509 253.828 54.1163 253.399 54.1163C252.904 54.1163 252.484 54.0463 252.139 53.9062C251.793 53.7662 251.509 53.5936 251.285 53.3882C251.061 53.1736 250.893 52.9496 250.781 52.7162C250.669 52.4736 250.603 52.2542 250.585 52.0583L251.999 51.6662Z" fill="#6F7179"/>
<defs>
<filter id="filter0_dd_1474_6071" x="0.718752" y="0.812501" width="66.7187" height="66.7187" filterUnits="userSpaceOnUse" color-interpolation-filters="sRGB">
<feFlood flood-opacity="0" result="BackgroundImageFix"/>
<feColorMatrix in="SourceAlpha" type="matrix" values="0 0 0 0 0 0 0 0 0 0 0 0 0 0 0 0 0 0 127 0" result="hardAlpha"/>
<feOffset dy="1.09375"/>
<feGaussianBlur stdDeviation="1.09375"/>
<feColorMatrix type="matrix" values="0 0 0 0 0.0627451 0 0 0 0 0.0941176 0 0 0 0 0.156863 0 0 0 0.06 0"/>
<feBlend mode="normal" in2="BackgroundImageFix" result="effect1_dropShadow_1474_6071"/>
<feColorMatrix in="SourceAlpha" type="matrix" values="0 0 0 0 0 0 0 0 0 0 0 0 0 0 0 0 0 0 127 0" result="hardAlpha"/>
<feOffset dy="1.09375"/>
<feGaussianBlur stdDeviation="1.64062"/>
<feColorMatrix type="matrix" values="0 0 0 0 0.0627451 0 0 0 0 0.0941176 0 0 0 0 0.156863 0 0 0 0.1 0"/>
<feBlend mode="normal" in2="effect1_dropShadow_1474_6071" result="effect2_dropShadow_1474_6071"/>
<feBlend mode="normal" in="SourceGraphic" in2="effect2_dropShadow_1474_6071" result="shape"/>
</filter>
<linearGradient id="paint0_linear_1474_6071" x1="147.019" y1="41.0313" x2="158.123" y2="41.0312" gradientUnits="userSpaceOnUse">
<stop offset="0.583233" stop-color="#FEDF89"/>
<stop offset="0.583333" stop-color="#FDB022" stop-opacity="0"/>
</linearGradient>
</defs>
</svg>
