<svg xmlns="http://www.w3.org/2000/svg" xmlns:xlink="http://www.w3.org/1999/xlink" viewBox="0 0 574.71566 166.25017"><defs><style>.cls-1{fill:url(#New_Gradient_Swatch_6);}.cls-2{fill:url(#New_Gradient_Swatch_5);}.cls-3{fill:#fff;}.cls-4{fill:url(#linear-gradient);}.cls-5{fill:url(#linear-gradient-2);}.cls-6{fill:url(#New_Gradient_Swatch_5-2);}</style><linearGradient id="New_Gradient_Swatch_6" x1="-15.2521" y1="66.13757" x2="29.02216" y2="100.17638" gradientUnits="userSpaceOnUse"><stop offset="0" stop-color="#044b8e"/><stop offset="1" stop-color="#85440b"/></linearGradient><linearGradient id="New_Gradient_Swatch_5" x1="35.20188" y1="130.98947" x2="-10.50058" y2="99.331" gradientUnits="userSpaceOnUse"><stop offset="0" stop-color="#0839ff"/><stop offset="1" stop-color="#f47d14"/></linearGradient><linearGradient id="linear-gradient" x1="38.7985" y1="14.57363" x2="82.10964" y2="54.48337" gradientUnits="userSpaceOnUse"><stop offset="0"/><stop offset="1" stop-opacity="0"/></linearGradient><linearGradient id="linear-gradient-2" x1="21.36801" y1="37.20918" x2="32.93277" y2="86.64284" xlink:href="#linear-gradient"/><linearGradient id="New_Gradient_Swatch_5-2" x1="-9.74199" y1="93.21328" x2="90.23214" y2="-4.38052" xlink:href="#New_Gradient_Swatch_5"/></defs><g id="Layer_2" data-name="Layer 2"><g id="Layer_1-2" data-name="Layer 1"><path class="cls-1" d="M30.1588,87.58271h6.88245c-6.714-4.06868-15.70834-5.98122-25.66293-6.98718a30.73255,30.73255,0,0,0-8.51264,17.7676c6.21038,7.37547,15.8,5.81411,27.29312,8.34993Z"/><path class="cls-2" d="M30.1588,114.18038c-10.4735-2.45614-22.324-2.26123-26.78638-10.54805-.35047,28.11334,12.37447,26.69846,25.584,27.259v-2.08444H30.1588Z"/><path class="cls-3" d="M63.0575,32.747H88.52981L129.061,84.81672V32.747h27.02019v98.511H132.15681L90.07769,77.21759V131.258H63.0575Z"/><polygon class="cls-3" points="31.606 32.747 31.606 44.508 17.608 44.508 17.608 131.258 45.05 131.258 45.05 32.747 31.606 32.747"/><polygon class="cls-4" points="90.078 126.826 90.078 77.218 128.706 126.826 156.081 126.826 156.081 32.747 129.061 32.747 129.061 84.817 88.53 32.747 63.058 32.747 63.058 126.826 90.078 126.826"/><polygon class="cls-5" points="28.48 32.747 28.48 46.461 17.608 46.461 17.608 126.826 45.05 126.826 45.05 32.747 28.48 32.747"/><path class="cls-3" d="M170.14386,82.284v-.28152c0-28.7093,22.09407-51.22612,51.92945-51.22612,20.12438,0,33.07048,8.44369,41.79664,20.54713L243.32377,67.226c-5.6304-7.037-12.1044-11.54041-21.53293-11.54041-13.79161,0-23.50071,11.68069-23.50071,26.03534v.28152c0,14.77646,9.7091,26.31687,23.50071,26.31687,10.274,0,16.32434-4.78489,22.2353-11.96221l20.54618,14.63522c-9.28729,12.80677-21.81159,22.2353-43.62509,22.2353C192.801,133.22765,170.14386,111.69662,170.14386,82.284Z"/><path class="cls-3" d="M270.05385,82.284v-.28152c0-28.28654,22.79834-51.22612,53.19677-51.22612,30.39651,0,52.91429,22.65806,52.91429,50.9446v.28152c0,28.28655-22.79834,51.22518-53.19677,51.22518S270.05385,110.57054,270.05385,82.284Zm78.24536,0v-.28152c0-14.21341-10.27214-26.59838-25.33107-26.59838-14.91769,0-24.90926,12.10345-24.90926,26.31686v.28152c0,14.21342,10.274,26.59839,25.19174,26.59839C338.30764,108.60086,348.29921,96.49741,348.29921,82.284Z"/><path class="cls-3" d="M390.36878,32.747h46.58153c15.057,0,25.4723,3.94032,32.08564,10.69584,5.76972,5.62849,8.72616,13.22858,8.72616,22.93863V66.663c0,15.058-8.02189,25.04955-20.26562,30.25719L480.9972,131.258H449.47461l-19.84382-29.83443H417.66953V131.258H390.36878ZM435.683,80.03184c9.2873,0,14.63522-4.50337,14.63522-11.6807v-.28056c0-7.74037-5.62849-11.68069-14.77645-11.68069H417.66953v23.642Z"/><path class="cls-3" d="M491.54418,32.747h42.21844c24.90927,0,40.953,12.80677,40.953,34.61931v.28152c0,23.22015-17.87413,35.46388-42.36159,35.46388H518.84493V131.258H491.54418Zm40.24876,48.974c9.7091,0,15.62006-5.0664,15.62006-12.80677v-.28152c0-8.44368-5.911-12.94705-15.7613-12.94705H518.84493V81.721Z"/><path class="cls-6" d="M2.86584,98.36319C-14.69886,23.341,53.19579,34.48793,78.36122,0,84.2723,79.008,9.28454,53.1334,2.86584,98.36319Z"/><path class="cls-3" d="M36.84913,148.62851H32.29677c-.02462-.22772-.03693-.39594-.03693-.50365q-.16309-2.06949-.917-2.60135-.757-.53082-3.56557-.53032-3.31117,0-4.32874.61136a2.7813,2.7813,0,0,0-1.01551,2.57468q0,2.32182.82677,2.78906.82779.46929,5.47144.72009,5.48991.30618,7.10242,1.56634,1.60942,1.26017,1.61045,5.23757,0,4.896-1.88946,6.32694-1.89253,1.43094-8.33334,1.43094-5.79764,0-7.6953-1.40427-1.8987-1.4048-1.89972-5.68788l-.01847-.8996h4.536l.01846.52211q0,2.57417.90062,3.14911.89858.577,4.91343.57648,3.13269,0,3.99639-.66572.86165-.66624.8637-3.07833a3.17154,3.17154,0,0,0-.6565-2.36645,5.07883,5.07883,0,0,0-2.83522-.71085l-2.57467-.16207q-5.83149-.34158-7.45118-1.62072-1.61866-1.27707-1.62071-5.48888,0-4.30206,1.95306-5.733,1.95409-1.431,7.804-1.43095,5.54222,0,7.46964,1.314,1.92332,1.314,1.92434,5.12986Z"/><path class="cls-3" d="M89.96131,141.24914q6.69621,0,8.6226,2.22284,1.92639,2.22334,1.9264,9.94482,0,8.441-1.93665,10.6372-1.93255,2.19566-9.36731,2.19617-6.69621,0-8.65748-2.1695-1.96332-2.168-1.96127-9.54784,0-8.78417,1.92434-11.03418Q82.43833,141.24915,89.96131,141.24914Zm-.359,3.99537q-4.699,0-5.4899,1.2063t-.7919,8.3518q0,5.29142.9273,6.371.92627,1.08013,5.46324,1.08013,4.33592,0,5.20064-1.21451.86472-1.21553.86369-7.37116,0-6.17307-.81856-7.29834Q94.13824,145.245,89.60229,145.24451Z"/><path class="cls-3" d="M147.394,141.46558v20.39226H158.9134v4.17589H142.73294V141.46558Z"/><path class="cls-3" d="M216.14917,141.46558h4.66109v16.34253q0,5.12985-1.96948,6.78545-1.97255,1.65712-8.05637,1.65661-6.42542,0-8.42361-1.56635-1.99716-1.56634-1.99614-6.60594v-16.6123h4.66109v16.6123q0,2.7188.97243,3.44761.97242.72777,4.57082.72829,3.68968,0,4.63441-.73753.94473-.73854.94576-3.61788Z"/><path class="cls-3" d="M273.97783,145.64045v20.39328H269.3147V145.64045h-7.09011v-4.17487h19.09569v4.17487Z"/><path class="cls-3" d="M327.41416,141.46558v24.56815h-4.66108V141.46558Z"/><path class="cls-3" d="M381.04949,141.24914q6.69621,0,8.6226,2.22284,1.92639,2.22334,1.92639,9.94482,0,8.441-1.93665,10.6372-1.93254,2.19566-9.36731,2.19617-6.69621,0-8.65747-2.1695-1.96332-2.168-1.96127-9.54784,0-8.78417,1.92434-11.03418Q373.52651,141.24915,381.04949,141.24914Zm-.359,3.99537q-4.699,0-5.48991,1.2063t-.79189,8.3518q0,5.29142.92729,6.371.92628,1.08013,5.46324,1.08013,4.33592,0,5.20064-1.21451.86472-1.21553.8637-7.37116,0-6.17307-.81856-7.29834Q385.22642,145.245,380.69047,145.24451Z"/><path class="cls-3" d="M456.626,141.46558v24.56815h-7.90251l-7.0183-13.48166q-.52314-1.0078-1.63918-3.52761l-.79189-1.76329-.77343-1.76432h-.18053l.0718,1.61968.05539,1.60225.03488,3.22194v14.093h-4.66109V141.46558h7.90046l6.39053,12.45487q.84626,1.65558,1.96127,4.01383l.9355,1.99819.93755,2.01563h.16207l-.05539-1.58378-.05334-1.58379-.03693-3.16859V141.46558Z"/><path class="cls-3" d="M518.25,148.62851h-4.55236c-.02462-.22772-.03693-.39594-.03693-.50365q-.16309-2.06949-.917-2.60135-.757-.53082-3.56557-.53032-3.31117,0-4.32874.61136-1.01551.61239-1.01551,2.57468,0,2.32182.82677,2.78906.82779.46929,5.47144.72009,5.48991.30618,7.10242,1.56634,1.60942,1.26017,1.61045,5.23757,0,4.896-1.88946,6.32694-1.89255,1.43094-8.33334,1.43094-5.79764,0-7.6953-1.40427-1.8987-1.4048-1.89973-5.68788l-.01846-.8996h4.53594l.01847.52211q0,2.57417.90062,3.14911.89858.577,4.91343.57648,3.13269,0,3.99639-.66572.86164-.66624.86369-3.07833a3.17155,3.17155,0,0,0-.65649-2.36645,5.07886,5.07886,0,0,0-2.83522-.71085l-2.57468-.16207q-5.83148-.34158-7.45117-1.62072-1.61867-1.27707-1.62071-5.48888,0-4.30206,1.95306-5.733,1.95408-1.431,7.804-1.43095,5.54221,0,7.46964,1.314,1.92332,1.314,1.92434,5.12986Z"/></g></g></svg>